# xmcd
#
# Track frame offsets:
#	150
#	20801
#	38414
#	53318
#	64795
#	77561
#	91428
#	107879
#	121783
#	139485
#	157782
#	172946
#	184702
#	203762
#	218390
#
# Disc length: 3187
#
# Revision: 1
# Processed by: cddbd v1.5.1PL0 Copyright (c) Steve Scherf et al.
# Submitted via: VisiTrax 2.9.5.180 - For more info visit www.synapsa.com
# Normalized: r0:DSETVAR1
#
DISCID=b60c710f
DTITLE=Various Artist - CDX 271 July 2001
DYEAR=2001
DGENRE=
TTITLE0=Tim McGraw - Angry all the time
TTITLE1=3 of Hearts - Arizona rain
TTITLE2=Jameson Clark - Don't play any love songs
TTITLE3=Don McLean - I can't quit
TTITLE4=Wayne Warner - I wanna do that (love thing)
TTITLE5=Dwight Yoakam/Buck Owens - I was there
TTITLE6=Bering Strait - Jagged edge of a briken heart
TTITLE7=Rhonda Vincent - My sweet love ain't around
TTITLE8=LeAnn Rimes - Soon
TTITLE9=Confederate Railroad - That's what brothers do
TTITLE10=Valerie Delacruz - That's why I like your love
TTITLE11=Elbert West - Unpreditable
TTITLE12=Sonny Marshall - Marriage on the rocks
TTITLE13=Pat Garrett - Oldtimes
TTITLE14=Mark Islam - That restless feeling
EXTD=
EXTT0=
EXTT1=
EXTT2=
EXTT3=
EXTT4=
EXTT5=
EXTT6=
EXTT7=
EXTT8=
EXTT9=
EXTT10=
EXTT11=
EXTT12=
EXTT13=
EXTT14=
PLAYORDER=
